<svg viewBox="147.51088 96 159.673536 135.34" transform="matrix(1, 0, 0, 1, 0, 0)" preserveAspectRatio="xMidYMid meet" version="1.0" xmlns="http://www.w3.org/2000/svg" style="max-height: 500px" width="159.673536" height="135.34">

<g stroke="none" fill="#ffffff" transform="translate(0.000000,445.000000) scale(0.100000,-0.100000)">
<path fill="#ffffff" d="M1883 3478 c-22 -27 -363 -637 -363 -648 0 -7 82 -158 183 -336 l182 -324 380 3 380 2 182 319 c101 175 183 326 183 336 0 15 -336 615 -362 648 -8 9 -97 12 -383 12 -286 0 -375 -3 -382 -12z m657 -25 c0 -8 -450 -158 -506 -169 -29 -6 -31 -4 -67 78 -20 45 -37 86 -37 91 0 4 137 7 305 7 168 0 305 -3 305 -7z m101 -123 c51 -275 88 -494 85 -497 -4 -4 -613 365 -658 398 -21 16 -12 20 253 108 151 49 280 89 288 88 10 -1 20 -32 32 -97z m-705 16 c19 -41 34 -81 34 -89 0 -8 -21 -34 -47 -58 -27 -23 -111 -103 -187 -176 -76 -74 -140 -132 -142 -130 -2 2 57 111 132 243 151 265 162 284 170 284 3 0 21 -33 40 -74z m889 -245 c97 -173 134 -246 125 -251 -18 -11 -170 -43 -176 -37 -3 3 -16 65 -29 139 -13 73 -33 186 -44 250 -20 111 -25 156 -17 147 2 -2 65 -114 141 -248z m-656 27 c64 -39 172 -106 241 -148 69 -43 167 -103 219 -135 l93 -58 -48 -27 c-27 -15 -181 -103 -341 -194 -161 -91 -297 -166 -303 -166 -7 0 -10 142 -10 406 0 374 1 406 17 400 9 -4 68 -39 132 -78z m-189 -325 l0 -397 -41 39 c-22 22 -113 116 -202 209 l-161 168 194 189 c107 103 198 188 203 189 4 0 7 -179 7 -397z m980 0 c0 -15 -295 -524 -298 -515 -2 6 9 59 23 119 14 59 35 146 46 193 41 176 38 169 78 179 20 6 52 14 71 19 43 12 80 14 80 5z m-255 -160 c-12 -54 -35 -152 -50 -218 -43 -191 -44 -195 -62 -195 -21 0 -504 120 -522 130 -11 6 1 16 40 39 30 17 176 100 324 185 149 85 275 155 281 155 8 1 4 -31 -11 -96z m-1019 15 c27 -29 103 -108 169 -176 l119 -123 -34 -65 c-19 -35 -38 -64 -42 -64 -3 0 -22 28 -41 63 -19 34 -79 142 -135 240 -55 97 -97 177 -93 177 4 0 30 -24 57 -52z m582 -384 c125 -31 231 -61 236 -65 6 -5 -115 -9 -275 -9 -157 0 -288 3 -291 6 -4 3 10 32 29 65 23 39 42 59 54 59 11 0 122 -25 247 -56z"/>
<path fill="#ffffff" d="M875 1815 c-5 -2 -27 -6 -48 -10 -87 -14 -144 -107 -134 -221 5 -72 20 -99 80 -147 30 -25 48 -30 104 -34 37 -3 84 -1 103 4 32 8 35 12 38 52 3 39 1 43 -15 36 -59 -25 -94 -29 -135 -15 -53 19 -80 56 -85 117 -6 67 20 113 75 133 41 14 79 10 145 -15 14 -6 17 -1 17 33 0 37 -3 41 -32 50 -41 13 -100 21 -113 17z"/>
<path fill="#ffffff" d="M1265 1815 c-5 -2 -27 -6 -47 -10 -153 -25 -191 -283 -56 -373 76 -50 205 -40 267 20 42 42 61 88 61 155 0 91 -48 172 -114 192 -39 12 -98 20 -111 16z m95 -103 c71 -72 37 -220 -54 -237 -99 -19 -167 92 -122 199 19 45 52 66 104 66 35 0 49 -6 72 -28z"/>
<path fill="#ffffff" d="M1562 1608 l3 -201 40 0 40 0 3 201 2 202 -45 0 -45 0 2 -202z"/>
<path fill="#ffffff" d="M1740 1612 c0 -109 2 -201 5 -203 2 -3 20 -3 40 -1 l35 4 0 119 c0 65 3 119 8 119 4 0 19 -17 32 -37 14 -21 51 -75 83 -120 56 -80 60 -83 98 -83 l39 0 0 200 0 200 -40 0 -40 0 0 -119 c0 -66 -4 -122 -8 -125 -4 -2 -28 25 -53 61 -111 166 -126 183 -164 183 l-35 0 0 -198z"/>
<path fill="#ffffff" d="M2168 1804 c-5 -4 -8 -94 -8 -201 l0 -193 45 0 44 0 3 73 c3 66 5 72 26 75 18 3 31 -10 70 -72 l47 -76 48 0 c26 0 47 2 47 5 0 3 -23 40 -51 82 -45 66 -49 77 -35 85 51 29 75 87 59 148 -15 58 -46 72 -175 77 -62 3 -116 2 -120 -3z m187 -78 c11 -8 18 -26 18 -46 0 -42 -24 -60 -80 -60 l-43 0 0 53 c0 30 3 57 7 60 11 12 79 7 98 -7z"/>
<path fill="#ffffff" d="M2543 1795 c-3 -9 -4 -81 -1 -161 5 -161 13 -183 79 -216 45 -23 133 -23 178 0 69 34 76 55 79 233 l4 159 -46 0 -46 0 0 -145 c0 -142 -1 -147 -25 -170 -29 -30 -74 -32 -106 -6 -23 18 -24 25 -27 170 l-3 151 -40 0 c-27 0 -42 -5 -46 -15z"/>
<path fill="#ffffff" d="M2990 1803 c0 -9 -36 -297 -45 -355 l-5 -38 39 0 c47 0 45 -4 61 138 7 56 15 102 19 102 4 0 27 -54 51 -120 44 -118 45 -120 77 -120 31 0 32 1 68 113 21 61 41 116 46 121 9 10 15 -14 24 -94 15 -142 13 -138 56 -142 39 -4 39 -3 39 32 -1 19 -11 109 -23 200 l-22 165 -44 0 -44 0 -47 -118 c-25 -65 -50 -119 -55 -120 -5 -1 -30 52 -56 118 l-46 120 -47 3 c-25 2 -46 -1 -46 -5z"/>
<path fill="#ffffff" d="M3542 1618 c-35 -106 -63 -197 -62 -201 0 -5 19 -7 42 -5 37 3 42 6 53 38 l12 35 75 3 76 3 9 -38 c8 -37 10 -38 56 -41 26 -2 47 -2 47 0 0 2 -29 91 -64 198 l-64 195 -59 3 -58 3 -63 -193z m146 38 c12 -41 22 -79 22 -85 0 -7 -21 -11 -51 -11 -44 0 -51 2 -46 18 2 9 13 47 23 85 10 37 21 67 25 67 3 0 16 -33 27 -74z"/>
<path fill="#ffffff" d="M1095 1105 c-49 -48 -15 -135 53 -135 67 0 99 97 46 139 -35 28 -69 26 -99 -4z m86 -3 c25 -21 30 -71 9 -96 -16 -20 -74 -21 -89 -2 -7 8 -11 32 -9 53 2 28 9 41 28 50 32 16 34 16 61 -5z"/>
<path fill="#ffffff" d="M1275 1105 c-50 -49 -15 -135 54 -135 16 0 33 5 36 10 4 6 -9 10 -33 10 -22 0 -45 6 -51 14 -14 17 -18 67 -6 85 11 19 48 29 73 20 12 -5 22 -5 22 0 0 9 -33 21 -58 21 -7 0 -24 -11 -37 -25z"/>
<path fill="#ffffff" d="M1566 1109 c-56 -44 -20 -139 55 -139 15 0 31 5 34 10 4 6 -10 10 -34 10 -63 0 -91 53 -53 101 14 17 29 22 58 21 30 0 34 2 19 8 -32 14 -51 11 -79 -11z"/>
<path fill="#ffffff" d="M2976 1114 c-30 -30 -17 -53 39 -71 20 -6 30 -16 30 -29 0 -15 -9 -20 -45 -24 -33 -4 -40 -7 -27 -12 48 -20 87 -2 87 39 0 18 -10 27 -40 39 -22 9 -40 22 -40 28 0 22 23 35 54 30 25 -3 27 -3 11 5 -30 14 -52 13 -69 -5z"/>
<path fill="#ffffff" d="M820 1045 l0 -75 35 0 c22 0 43 8 56 21 18 18 19 23 6 42 -10 16 -11 27 -4 38 19 31 1 49 -48 49 l-45 0 0 -75z m83 53 c8 -25 -6 -38 -39 -38 -30 0 -34 3 -34 25 0 22 4 25 34 25 19 0 36 -6 39 -12z m2 -84 c0 -15 -9 -20 -37 -22 -35 -3 -38 -1 -38 22 0 15 7 26 18 28 28 7 57 -8 57 -28z"/>
<path fill="#ffffff" d="M962 1048 l-2 -78 45 0 c25 0 45 5 45 10 0 6 -18 10 -40 10 l-39 0 -4 68 -3 67 -2 -77z"/>
<path fill="#ffffff" d="M1413 1045 c0 -44 2 -63 4 -42 2 20 8 37 12 37 4 0 22 -16 41 -35 19 -19 38 -35 44 -35 6 0 -8 18 -29 40 l-39 40 34 35 c19 19 29 35 24 35 -6 0 -23 -13 -39 -30 -36 -38 -43 -38 -48 3 -2 17 -4 -4 -4 -48z"/>
<path fill="#ffffff" d="M1703 1045 c0 -44 2 -63 4 -42 4 37 5 37 49 37 l44 0 0 -37 c0 -62 10 -30 15 46 2 41 0 71 -6 71 -5 0 -9 -13 -9 -30 0 -29 -2 -30 -44 -30 -43 0 -45 1 -49 33 -2 17 -4 -4 -4 -48z"/>
<path fill="#ffffff" d="M1895 1108 c-2 -7 -14 -39 -26 -71 -11 -32 -18 -61 -15 -65 4 -3 9 4 13 16 4 18 13 22 45 22 31 0 41 -4 45 -20 3 -11 9 -20 13 -20 5 0 -3 34 -17 75 -24 70 -47 95 -58 63z m34 -40 c13 -36 13 -35 -16 -40 -25 -3 -27 1 -18 42 8 39 20 38 34 -2z"/>
<path fill="#ffffff" d="M2011 1045 c0 -44 3 -74 7 -67 12 19 14 95 3 123 -8 19 -10 6 -10 -56z"/>
<path fill="#ffffff" d="M2070 1043 c0 -42 3 -73 7 -70 4 4 5 32 4 62 -1 30 2 55 6 55 5 0 27 -27 49 -60 21 -33 42 -60 47 -60 4 0 6 35 5 78 -1 58 -3 65 -5 27 -5 -60 -17 -75 -34 -44 -17 33 -62 89 -71 89 -5 0 -8 -34 -8 -77z"/>
<path fill="#ffffff" d="M2285 1063 c-4 -32 -9 -66 -11 -75 -3 -10 -1 -18 4 -18 6 0 13 28 18 63 l7 62 30 -65 29 -65 26 65 c23 58 27 62 33 40 4 -14 7 -42 8 -62 1 -21 6 -38 12 -38 6 0 8 11 5 28 -3 15 -8 48 -12 75 -3 26 -10 47 -14 47 -4 0 -18 -25 -30 -55 -12 -30 -25 -55 -29 -55 -3 0 -15 23 -26 52 -28 71 -42 72 -50 1z"/>
<path fill="#ffffff" d="M2498 1045 c-14 -41 -22 -75 -18 -75 5 0 12 9 15 20 9 29 81 29 90 -1 4 -11 9 -18 12 -16 2 3 -6 37 -18 76 -30 94 -46 93 -81 -4z m61 24 c6 -18 11 -33 11 -34 0 -7 -51 -11 -55 -5 -6 10 15 70 25 70 4 0 13 -14 19 -31z"/>
<path fill="#ffffff" d="M2639 1103 c-1 -10 -2 -43 -2 -73 l0 -55 36 -3 c68 -6 111 69 71 126 -20 29 -103 33 -105 5z m99 -25 c21 -44 -2 -82 -51 -86 l-37 -3 0 61 0 61 37 -3 c30 -2 41 -9 51 -30z"/>
<path fill="#ffffff" d="M2800 1045 l0 -75 45 0 c25 0 45 5 45 10 0 6 -18 10 -40 10 -36 0 -40 3 -40 25 0 22 4 25 35 25 19 0 35 5 35 10 0 6 -16 10 -35 10 -30 0 -35 3 -35 24 0 22 5 25 43 29 l42 4 -47 1 -48 2 0 -75z"/>
<path fill="#ffffff" d="M3103 1045 c0 -44 2 -61 4 -37 2 23 2 59 0 80 -2 20 -4 1 -4 -43z"/>
<path fill="#ffffff" d="M3165 1063 c-4 -32 -9 -66 -11 -75 -3 -10 -1 -18 4 -18 6 0 13 28 18 63 l7 62 30 -65 29 -65 26 65 c23 58 27 62 33 40 4 -14 7 -42 8 -62 1 -21 6 -38 12 -38 6 0 8 11 5 28 -3 15 -8 48 -12 75 -3 26 -10 47 -14 47 -4 0 -18 -25 -30 -55 -12 -30 -25 -55 -29 -55 -3 0 -15 23 -26 52 -28 71 -42 72 -50 1z"/>
<path fill="#ffffff" d="M3371 1043 c1 -55 3 -67 8 -43 5 32 9 35 43 38 31 3 39 8 44 28 11 41 -1 54 -51 54 l-45 0 1 -77z m82 55 c8 -24 -13 -48 -43 -48 -27 0 -30 3 -30 30 0 27 3 30 34 30 19 0 36 -6 39 -12z"/>
<path fill="#ffffff" d="M3502 1045 l-1 -75 50 0 c31 0 48 4 44 10 -3 6 -22 10 -41 10 l-34 0 0 65 c0 36 -4 65 -9 65 -4 0 -9 -34 -9 -75z"/>
<path fill="#ffffff" d="M3630 1045 l0 -75 45 0 c25 0 45 5 45 10 0 6 -18 10 -40 10 -36 0 -40 3 -40 25 0 22 4 25 35 25 19 0 35 5 35 10 0 6 -16 10 -35 10 -30 0 -35 3 -35 24 0 21 5 25 38 29 l37 4 -42 1 -43 2 0 -75z"/>
</g>
</svg>